<?xml version="1.0" standalone="no"?>
<!DOCTYPE svg PUBLIC "-//W3C//DTD SVG 20010904//EN"
 "http://www.w3.org/TR/2001/REC-SVG-20010904/DTD/svg10.dtd">
<svg version="1.0" xmlns="http://www.w3.org/2000/svg"
 width="592.000000pt" height="592.000000pt" viewBox="0 0 592.000000 592.000000"
 preserveAspectRatio="xMidYMid meet">
<metadata>
Created by potrace 1.11, written by Peter Selinger 2001-2013
</metadata>
<g transform="translate(0.000000,592.000000) scale(0.100000,-0.100000)"
fill="#000000" stroke="none">
<path d="M2487 5914 c-1 -1 -32 -5 -68 -8 -36 -4 -76 -8 -90 -11 -13 -2 -40
-6 -59 -9 -102 -16 -224 -47 -350 -88 -101 -32 -259 -96 -275 -110 -5 -4 -17
-8 -27 -8 -10 0 -18 -4 -18 -10 0 -5 -9 -10 -20 -10 -11 0 -20 -4 -20 -10 0
-5 -5 -10 -12 -10 -24 0 -321 -189 -348 -221 -3 -3 -10 -8 -16 -10 -52 -19
-349 -317 -449 -450 -42 -57 -82 -114 -88 -126 -6 -13 -14 -23 -19 -23 -4 0
-8 -6 -8 -14 0 -8 -4 -16 -8 -18 -15 -6 -173 -300 -187 -348 -1 -3 -7 -18 -14
-35 -57 -133 -126 -378 -146 -515 -2 -14 -6 -41 -9 -61 -4 -20 -9 -53 -12 -75
-8 -54 -12 -524 -4 -524 3 0 7 -10 7 -22 4 -64 12 -126 22 -149 5 -15 8 -29 5
-32 -3 -2 9 -58 26 -123 17 -66 32 -126 34 -134 2 -8 13 -41 24 -72 11 -32 17
-58 14 -58 -4 0 -2 -4 3 -8 6 -4 16 -25 24 -47 41 -124 268 -530 302 -543 5
-2 9 -8 9 -14 0 -18 123 -162 235 -274 93 -93 163 -156 233 -209 7 -5 22 -18
33 -28 10 -9 22 -17 25 -17 3 0 23 -14 44 -30 21 -17 42 -30 48 -30 6 0 12 -4
14 -8 4 -12 175 -111 268 -157 175 -85 431 -171 595 -199 17 -3 39 -7 50 -9
127 -28 496 -50 514 -31 6 6 8 4863 3 4882 -3 9 -39 12 -143 10 -77 -1 -141
-3 -142 -4z"/>
<path d="M3221 4901 l-35 -6 -1 -2430 c0 -1337 2 -2438 4 -2448 4 -18 13 -18
125 -13 67 3 132 8 146 10 22 4 91 14 145 21 56 8 230 49 300 72 44 14 85 26
90 27 6 2 21 7 35 13 14 6 43 16 65 24 22 8 43 18 46 22 3 5 8 8 10 6 8 -4 79
25 79 33 0 4 5 8 12 8 15 0 117 48 148 70 14 10 27 17 30 17 5 -1 49 25 92 54
15 11 32 19 38 19 5 0 10 5 10 10 0 6 5 10 10 10 6 0 57 34 113 76 173 130
294 244 426 399 42 50 79 91 84 93 4 2 7 10 7 18 0 8 3 14 8 14 4 0 15 12 24
28 9 15 30 45 45 67 152 213 318 599 358 834 3 19 8 37 10 40 2 4 6 27 9 51 4
25 9 56 11 70 15 84 20 167 18 345 -1 207 -8 313 -26 395 -19 88 -38 178 -41
195 -6 30 -84 266 -100 300 -8 17 -24 53 -37 80 -13 28 -23 52 -24 55 -1 6
-23 47 -67 130 -47 85 -170 266 -241 355 -68 84 -218 240 -302 314 -57 51
-270 211 -280 211 -3 0 -21 11 -38 24 -18 13 -59 38 -92 56 -33 18 -78 43
-100 54 -99 54 -357 157 -455 181 -8 3 -40 11 -70 19 -30 8 -66 17 -80 20 -14
2 -48 9 -77 15 -29 6 -74 13 -100 16 -26 4 -59 8 -73 11 -14 2 -67 7 -119 9
-51 3 -96 7 -100 8 -3 2 -21 1 -40 -2z m1150 -1023 c44 -15 106 -73 131 -122
39 -76 23 -144 -55 -233 -35 -39 -69 -60 -212 -128 -93 -45 -206 -99 -250
-120 -44 -22 -82 -39 -85 -40 -3 0 -16 -7 -28 -14 -13 -7 -26 -11 -28 -9 -2 3
8 29 22 59 15 30 40 83 55 119 16 36 33 72 38 80 4 8 13 24 19 35 20 37 101
215 101 222 -1 3 3 9 8 12 5 3 19 20 31 38 25 35 106 98 137 106 37 9 82 7
116 -5z m561 -1227 c75 -25 120 -97 120 -192 0 -145 -94 -221 -256 -206 -53 5
-225 59 -386 122 -39 15 -197 71 -219 77 -8 2 30 21 85 41 158 58 387 138 407
142 9 2 22 7 27 10 6 4 23 9 37 11 15 3 29 7 30 8 7 7 125 -3 155 -13z m-1064
-931 c9 -5 53 -26 97 -46 44 -20 144 -68 223 -105 79 -38 147 -69 152 -69 5 0
15 -6 22 -13 7 -6 29 -23 48 -36 77 -51 134 -179 105 -235 -7 -14 -11 -27 -9
-29 8 -8 -90 -105 -123 -121 -103 -51 -244 29 -315 179 -12 28 -27 53 -31 56
-5 3 -8 9 -8 13 1 3 -15 40 -34 81 -19 41 -51 110 -71 153 -20 42 -47 99 -60
125 -31 63 -31 67 4 47z"/>
</g>
</svg>
