<?xml version="1.0" encoding="utf-8"?>
<!-- Generator: Adobe Illustrator 16.0.0, SVG Export Plug-In . SVG Version: 6.00 Build 0)  -->
<!DOCTYPE svg PUBLIC "-//W3C//DTD SVG 1.1//EN" "http://www.w3.org/Graphics/SVG/1.1/DTD/svg11.dtd">
<svg version="1.1" id="Layer_1" xmlns="http://www.w3.org/2000/svg" xmlns:xlink="http://www.w3.org/1999/xlink" x="0px" y="0px"
	 width="85.039px" height="92.24px" viewBox="552.814 374.825 85.039 92.24" enable-background="new 552.814 374.825 85.039 92.24"
	 xml:space="preserve">
<path fill="#FFFFFF" d="M592.436,451.152c-0.48,0.018-0.962,0.027-1.445,0.027c-21.085,0-38.177-17.094-38.177-38.178
	s17.092-38.176,38.177-38.176c0.482,0,0.966,0.01,1.445,0.027V451.152z"/>
<path fill="#FFFFFF" d="M622.985,431.843c-0.966-0.274-8.634-3.075-8.663-3.085h-0.001h0.001c0.029-0.01,8.252-2.946,8.663-3.063
	s4.902-1.018,4.96,2.957v0.234C627.887,432.863,623.396,431.962,622.985,431.843 M618.682,449.56l-0.164,0.166
	c-2.849,2.775-5.394-1.034-5.603-1.408c-0.488-0.879-3.943-8.281-3.951-8.303l-0.002-0.001l0.002,0.001
	c0.02,0.01,7.922,3.742,8.295,3.949C617.635,444.171,621.451,446.705,618.682,449.56 M608.965,417.146
	c0.008-0.023,3.463-7.426,3.951-8.302c0.209-0.375,2.754-4.184,5.603-1.409l0.164,0.167c2.769,2.855-1.048,5.389-1.423,5.596
	C616.886,413.404,608.984,417.135,608.965,417.146L608.965,417.146L608.965,417.146L608.965,417.146z M598.869,390.669v76.395
	c21.098,0,38.986-17.101,38.986-38.197C637.855,407.771,619.967,390.669,598.869,390.669"/>
<rect x="93.04" y="702.185" fill="none" width="102.668" height="111.359"/>
</svg>
